<?xml version="1.0" encoding="UTF-8"?>
<svg width="55px" height="48px" viewBox="0 0 55 48" version="1.1" xmlns="http://www.w3.org/2000/svg" xmlns:xlink="http://www.w3.org/1999/xlink">
    <title>Combined Shape</title>
    <g id="Page-1" stroke="none" stroke-width="1" fill="none" fill-rule="evenodd">
        <g id="outline--top-of-box" fill="#25F08A" fill-rule="nonzero">
            <path d="M54.0847924,2.78723695 L54.0366699,2.91725206 L36.1838552,46.2883216 C35.716815,47.4229344 34.2820225,47.7440651 33.376663,46.9601807 L33.2663589,46.8564187 L21.938,35.293 L17.3054808,43.9128386 C16.5686507,45.2837253 14.6049222,45.0924763 14.0807996,43.7262989 L14.0318246,43.5807949 L13.9948265,43.4320932 L10.515,26.682 L1.46859205,22.0563957 C0.179612427,21.3973468 0.199055658,19.6025901 1.38714073,18.9291249 L1.52395231,18.8590245 L1.67033973,18.7988408 L51.7821078,0.566999238 C53.1914998,0.0542292218 54.5410965,1.40104697 54.0847924,2.78723695 Z M49.6688284,6.8966524 L22.9250947,32.5704109 L34.4475321,44.1487695 L49.6688284,6.8966524 Z M49.5430059,5.22622429 L13.189982,25.8905267 L15.8989297,41.443048 L21.37651,31.3068089 L49.5430059,5.22622429 Z M47.6368488,4.9200562 L4.1511947,20.8328923 L12.3527784,24.227949 L47.6368488,4.9200562 Z" id="Combined-Shape"></path>
        </g>
    </g>
</svg>